<svg id="headset" xmlns="http://www.w3.org/2000/svg" width="29" height="29" viewBox="0 0 29 29">
  <g id="Grupo_78" data-name="Grupo 78">
    <rect id="Retângulo_41" data-name="Retângulo 41" width="29" height="29" fill="none"/>
  </g>
  <path id="Caminho_34" data-name="Caminho 34" d="M27.4,15.457V12.686A12.721,12.721,0,0,0,14.537.15,12.721,12.721,0,0,0,1.674,12.686v2.771A5.333,5.333,0,0,0,1.5,16.7a5.39,5.39,0,0,0,5.451,5.312,5.8,5.8,0,0,0,1.7-.278l.435-.133V11.827l-.422-.133a5.314,5.314,0,0,0-4.271.351A10.061,10.061,0,0,1,14.524,2.8a10.061,10.061,0,0,1,10.131,9.245A5.338,5.338,0,0,0,22.1,11.4a5.8,5.8,0,0,0-1.7.278l-.435.133v9.777l.422.133a5.5,5.5,0,0,0,2.222.266,10.221,10.221,0,0,1-4.072,3.11,1.907,1.907,0,0,0-1.924-1.742H14.5a1.91,1.91,0,0,0-1.924,1.876v1.718a1.859,1.859,0,0,0,.733,1.476,1.924,1.924,0,0,0,1.18.4,2.049,2.049,0,0,0,.459-.048l1.887-.436A12.719,12.719,0,0,0,27,19a5.055,5.055,0,0,0,.559-2.287A4.215,4.215,0,0,0,27.4,15.457Z" transform="translate(-0.052 -0.005)" fill="#4696ff"/>
</svg>
