<svg id="icone_pie" data-name="icone pie" xmlns="http://www.w3.org/2000/svg" width="60" height="60" viewBox="0 0 60 60">
  <path id="Caminho_64" data-name="Caminho 64" d="M0,0H60V60H0Z" transform="translate(0)" fill="none"/>
  <path id="Caminho_65" data-name="Caminho 65" d="M27,2A25,25,0,1,0,52,27,25.009,25.009,0,0,0,27,2ZM46.825,24.5H29.5V7.175A20.006,20.006,0,0,1,46.825,24.5ZM7,27A20.011,20.011,0,0,1,24.5,7.175v39.65A20.011,20.011,0,0,1,7,27ZM29.5,46.825V29.5H46.825A20.006,20.006,0,0,1,29.5,46.825Z" transform="translate(3 3)" fill="#fff"/>
</svg>
