<svg xmlns="http://www.w3.org/2000/svg" width="60" height="60" viewBox="0 0 60 60">
  <g id="icone_visao" data-name="icone visao" transform="translate(0)">
    <path id="Caminho_68" data-name="Caminho 68" d="M0,0H60V60H0Z" transform="translate(0)" fill="none"/>
    <path id="Caminho_69" data-name="Caminho 69" d="M28.5,9.5A24.426,24.426,0,0,1,50.55,23.25a24.555,24.555,0,0,1-44.1,0A24.426,24.426,0,0,1,28.5,9.5m0-5A29.567,29.567,0,0,0,1,23.25a29.542,29.542,0,0,0,55,0A29.567,29.567,0,0,0,28.5,4.5Zm0,12.5a6.25,6.25,0,1,1-6.25,6.25A6.252,6.252,0,0,1,28.5,17m0-5A11.25,11.25,0,1,0,39.75,23.25,11.267,11.267,0,0,0,28.5,12Z" transform="translate(1.5 6.75)" fill="#fff"/>
  </g>
</svg>
