<svg xmlns="http://www.w3.org/2000/svg" width="60.896" height="60" viewBox="0 0 60.896 60">
  <g id="icone_mundo" data-name="icone mundo" transform="translate(0.377 -0.233)">
    <rect id="Retângulo_54" data-name="Retângulo 54" width="60.896" height="60" transform="translate(-0.377 0.233)" fill="none"/>
    <path id="Caminho_63" data-name="Caminho 63" d="M45.476,39.445a12.1,12.1,0,0,0,1.759-6.031A11.309,11.309,0,1,0,35.926,44.722a12.1,12.1,0,0,0,6.031-1.759L50,51l3.518-3.518Zm-9.55.251a6.283,6.283,0,1,1,6.283-6.283A6.222,6.222,0,0,1,35.926,39.7Zm-8.8,7.539v5.026A25.131,25.131,0,1,1,51.759,22.1h-5.2A20.1,20.1,0,0,0,34.67,8.509v1.03a5.041,5.041,0,0,1-5.026,5.026H24.618v5.026A2.52,2.52,0,0,1,22.1,22.1H17.078v5.026H22.1V34.67H19.591L7.554,22.632a20.4,20.4,0,0,0-.528,4.5A20.131,20.131,0,0,0,27.131,47.235Z" transform="translate(3.019 2.945)" fill="#fff"/>
  </g>
</svg>
