<svg id="icone-insta" xmlns="http://www.w3.org/2000/svg" width="20" height="20" viewBox="0 0 20 20">
  <rect id="Retângulo_29" data-name="Retângulo 29" width="20" height="20" fill="none"/>
  <g id="logo-insta" transform="translate(2 2)">
    <g id="Grupo_29" data-name="Grupo 29">
      <path id="Caminho_7" data-name="Caminho 7" d="M15.056,3.57a.936.936,0,1,0,.936.936A.932.932,0,0,0,15.056,3.57Z" transform="translate(-2.824 -0.714)" fill="#c4c4c4"/>
      <path id="Caminho_8" data-name="Caminho 8" d="M9.094,5.07a3.944,3.944,0,1,0,3.944,3.944A3.947,3.947,0,0,0,9.094,5.07Zm0,6.472a2.524,2.524,0,1,1,2.52-2.528A2.533,2.533,0,0,1,9.094,11.542Z" transform="translate(-1.03 -1.014)" fill="#c4c4c4"/>
      <path id="Caminho_9" data-name="Caminho 9" d="M11.192,16H4.808A4.807,4.807,0,0,1,0,11.192V4.808A4.807,4.807,0,0,1,4.808,0h6.384A4.812,4.812,0,0,1,16,4.808V11.2A4.811,4.811,0,0,1,11.192,16ZM4.808,1.5a3.3,3.3,0,0,0-3.3,3.3V11.2a3.3,3.3,0,0,0,3.3,3.3h6.384a3.3,3.3,0,0,0,3.3-3.3V4.808a3.3,3.3,0,0,0-3.3-3.3H4.808Z" fill="#c4c4c4"/>
    </g>
  </g>
</svg>
