<svg id="icone-linkedin" xmlns="http://www.w3.org/2000/svg" width="20" height="20" viewBox="0 0 20 20">
  <rect id="Ret창ngulo_26" data-name="Ret창ngulo 26" width="20" height="20" fill="none"/>
  <g id="logo-linkedin" transform="translate(2 2)">
    <g id="Grupo_30" data-name="Grupo 30">
      <path id="Caminho_10" data-name="Caminho 10" d="M3.552,1.776A1.678,1.678,0,0,1,1.776,3.552,1.709,1.709,0,0,1,0,1.864,1.8,1.8,0,0,1,1.776,0,1.728,1.728,0,0,1,3.552,1.776Z" fill="#c4c4c4"/>
    </g>
    <g id="Grupo_31" data-name="Grupo 31" transform="translate(0 4.448)">
      <rect id="Ret창ngulo_27" data-name="Ret창ngulo 27" width="3.552" height="11.552" fill="#c4c4c4"/>
    </g>
    <g id="Grupo_32" data-name="Grupo 32" transform="translate(5.248 4.624)">
      <path id="Caminho_11" data-name="Caminho 11" d="M13.4,5.78a3.884,3.884,0,0,0-3.376,1.776H9.936L9.76,6.044H6.56c0,.976.088,2.136.088,3.464v7.648H10.2V10.844a2.764,2.764,0,0,1,.088-.888,1.909,1.909,0,0,1,1.688-1.424c1.248,0,1.776,1.064,1.776,2.488v6.136h3.56V10.58C17.312,7.292,15.624,5.78,13.4,5.78Z" transform="translate(-6.56 -5.78)" fill="#c4c4c4"/>
    </g>
  </g>
</svg>
