<svg id="icone-lock" xmlns="http://www.w3.org/2000/svg" width="56.923" height="60" viewBox="0 0 56.923 60">
  <g id="Grupo_139" data-name="Grupo 139">
    <path id="Caminho_70" data-name="Caminho 70" d="M0,0H56.923V60H0Z" fill="none"/>
    <path id="Caminho_71" data-name="Caminho 71" d="M0,0H56.923V60H0Z" fill="none" opacity="0.87"/>
  </g>
  <path id="Caminho_72" data-name="Caminho 72" d="M48.653,20.264h-3.19v-5.5C45.464,7.164,38.319,1,29.516,1S13.569,7.164,13.569,14.76v5.5h-3.19C6.871,20.264,4,22.74,4,25.768v27.52c0,3.027,2.871,5.5,6.379,5.5H48.653c3.508,0,6.379-2.477,6.379-5.5V25.768C55.032,22.74,52.162,20.264,48.653,20.264Zm-28.706-5.5c0-4.568,4.274-8.256,9.569-8.256s9.569,3.688,9.569,8.256v5.5H19.948ZM48.653,53.287H10.379V25.768H48.653ZM29.516,45.031c3.508,0,6.379-2.477,6.379-5.5s-2.871-5.5-6.379-5.5-6.379,2.477-6.379,5.5S26.008,45.031,29.516,45.031Z" transform="translate(-1.055 -0.264)" fill="#fff"/>
</svg>
