<svg id="icon-chat" xmlns="http://www.w3.org/2000/svg" width="50" height="50" viewBox="0 0 50 50">
  <path id="Caminho_55" data-name="Caminho 55" d="M0,0H50V50H0Z" fill="none"/>
  <path id="Caminho_56" data-name="Caminho 56" d="M39.5,2H6.167A4.161,4.161,0,0,0,2.021,6.167L2,43.667l8.333-8.333H39.5a4.179,4.179,0,0,0,4.167-4.167v-25A4.179,4.179,0,0,0,39.5,2Zm0,29.167H8.6L7.375,32.4,6.167,33.6V6.167H39.5ZM10.333,22.833H14.5V27H10.333Zm0-6.25H14.5V20.75H10.333Zm0-6.25H14.5V14.5H10.333Zm8.333,12.5H29.083V27H18.667Zm0-6.25H35.333V20.75H18.667Zm0-6.25H35.333V14.5H18.667Z" transform="translate(2.167 2.167)" fill="#4696ff"/>
</svg>
