<svg id="icon-people" xmlns="http://www.w3.org/2000/svg" width="50" height="50" viewBox="0 0 50 50">
  <path id="Caminho_59" data-name="Caminho 59" d="M0,0H50V50H0Z" fill="none"/>
  <path id="Caminho_60" data-name="Caminho 60" d="M22.833,2A20.833,20.833,0,1,0,43.667,22.833,20.841,20.841,0,0,0,22.833,2ZM12.563,35.917c.9-1.875,6.354-3.708,10.271-3.708s9.4,1.833,10.271,3.708a16.511,16.511,0,0,1-20.542,0ZM36.083,32.9c-2.979-3.625-10.208-4.854-13.25-4.854S12.563,29.271,9.583,32.9a16.667,16.667,0,1,1,26.5,0ZM22.833,10.333a7.292,7.292,0,1,0,7.292,7.292A7.273,7.273,0,0,0,22.833,10.333Zm0,10.417a3.125,3.125,0,1,1,3.125-3.125A3.121,3.121,0,0,1,22.833,20.75Z" transform="translate(2.167 2.167)" fill="#4696ff"/>
</svg>
