<svg id="Grupo_401" data-name="Grupo 401" xmlns="http://www.w3.org/2000/svg" width="25.9" height="26" viewBox="0 0 25.9 26">
  <g id="Grupo_400" data-name="Grupo 400">
    <g id="Grupo_399" data-name="Grupo 399">
      <path id="Caminho_172" data-name="Caminho 172" d="M24.176,5.783A12.783,12.783,0,0,0,15.052,2,12.889,12.889,0,0,0,3.872,21.318L2.05,28l6.833-1.794a12.913,12.913,0,0,0,6.169,1.573h0a12.885,12.885,0,0,0,9.124-22ZM15.052,25.595h0A10.762,10.762,0,0,1,9.586,24.1l-.39-.234L5.135,24.932l1.08-3.952-.26-.4A10.71,10.71,0,0,1,15.039,4.171a10.712,10.712,0,0,1,.013,21.424Zm5.883-8.008c-.325-.156-1.913-.936-2.2-1.053s-.508-.156-.729.156-.833,1.053-1.015,1.261-.377.247-.7.078a8.675,8.675,0,0,1-2.59-1.6,9.838,9.838,0,0,1-1.8-2.236c-.182-.325-.026-.494.143-.663.143-.143.325-.377.482-.559a2.253,2.253,0,0,0,.325-.533.6.6,0,0,0-.026-.559c-.078-.156-.729-1.742-.989-2.392-.26-.624-.534-.546-.729-.559h-.625a1.17,1.17,0,0,0-.859.4,3.665,3.665,0,0,0-1.119,2.691A6.259,6.259,0,0,0,9.82,15.351a14.281,14.281,0,0,0,5.505,4.862,15.764,15.764,0,0,0,1.835.676,4.464,4.464,0,0,0,2.03.13,3.277,3.277,0,0,0,2.174-1.534,2.538,2.538,0,0,0,.182-1.534C21.455,17.808,21.26,17.743,20.935,17.587Z" transform="translate(-2.05 -2)" fill="#fff"/>
    </g>
  </g>
</svg>
